Coordinates
version=1
nRows=13
nColumns=40
inDegrees=yes

Units are S.I. units (second, meters, Newtons, ...)
Angles are in degrees.

endheader
time	pelvis_tilt	pelvis_list	pelvis_rotation	pelvis_tx	pelvis_ty	pelvis_tz	hip_flexion_r	hip_adduction_r	hip_rotation_r	knee_angle_r	knee_angle_r_beta	ankle_angle_r	subtalar_angle_r	mtp_angle_r	hip_flexion_l	hip_adduction_l	hip_rotation_l	knee_angle_l	knee_angle_l_beta	ankle_angle_l	subtalar_angle_l	mtp_angle_l	lumbar_extension	lumbar_bending	lumbar_rotation	arm_flex_r	arm_add_r	arm_rot_r	elbow_flex_r	pro_sup_r	wrist_flex_r	wrist_dev_r	arm_flex_l	arm_add_l	arm_rot_l	elbow_flex_l	pro_sup_l	wrist_flex_l	wrist_dev_l
      0.46000000	      2.16090021	     -2.85344949	     -1.39044215	     -0.78462483	      0.90876201	     -1.42066283	      3.35749622	      5.77047337	    -13.11141151	    -20.19350679	     -0.35244318	      9.12275955	     -1.65260763	      2.87448724	     17.29399237	      6.28276246	      8.83422866	    -51.63485599	     -0.90119825	      2.51866976	      4.31727781	    -12.65835587	     -7.43629540	      5.34416123	      1.17925887	      7.77695166	    -11.32247999	     14.99807572	     16.62800802	     89.95437384	      0.00000000	      0.00000000	      4.89440307	      9.20703061	     -2.65406568	     44.12400874	     89.95437384	      0.00000000	      0.00000000
      0.47000000	      2.79365303	     -2.68940012	     -1.39088986	     -0.77160294	      0.90989790	     -1.42043792	      1.21301264	      5.50965748	    -13.83691861	    -19.24758410	     -0.33593372	      9.30197457	     -0.39700661	      2.12863613	     17.58568044	      5.82650610	      8.83004494	    -49.25950893	     -0.85974062	      2.94590077	      4.26865496	    -12.95649745	     -8.19316162	      4.99132447	      1.27293520	      8.59645430	    -11.35253284	     14.76928418	     17.46639430	     89.95437384	      0.00000000	      0.00000000	      4.35074156	      9.03700973	     -2.80011017	     42.63216368	     89.95437384	      0.00000000	      0.00000000
      0.48000000	      2.46735395	     -2.78349724	     -1.52526480	     -0.75944984	      0.90901183	     -1.41985506	      0.51013706	      5.61423309	    -14.18056887	    -18.96291930	     -0.33096538	      9.67636744	     -0.32372665	      1.98465114	     19.16868969	      5.84185096	      8.92493291	    -47.19899074	     -0.82377779	      3.21514201	      4.14792235	    -12.77148827	     -7.94949730	      4.94941046	      1.36845785	      9.43983594	    -11.39293417	     14.74387123	     18.20786863	     89.95437384	      0.00000000	      0.00000000	      3.64157742	      8.86401638	     -2.86831004	     41.15113057	     89.95437384	      0.00000000	      0.00000000
      0.49000000	      2.54650119	     -2.72326433	     -1.60432359	     -0.74705256	      0.90858798	     -1.41981174	     -0.85634530	      5.59051370	    -14.21093949	    -18.26377384	     -0.31876299	     10.22831131	      0.15426073	      1.72874032	     20.03407176	      5.41264190	      8.63240990	    -44.58908700	     -0.77822638	      3.61370456	      3.96118994	    -12.73082478	     -8.11399895	      4.77509800	      1.66571639	     10.16115954	    -11.57158705	     14.73612755	     19.09676712	     89.95437384	      0.00000000	      0.00000000	      3.54632805	      8.37963250	     -2.83072038	     38.61337079	     89.95437384	      0.00000000	      0.00000000
      0.50000000	      3.51651101	     -2.52352365	     -1.80682632	     -0.73368809	      0.90924022	     -1.41972910	     -3.28295788	      5.20620882	    -14.89968239	    -17.56167237	     -0.30650901	     10.43791019	      1.53012276	      0.96271229	     19.51292131	      5.01252093	      8.91380087	    -41.54147337	     -0.72503549	      3.42823552	      3.89648600	    -12.67796338	     -9.25933157	      4.38943609	      1.93629294	     10.80486900	    -11.85590218	     15.14777335	     20.47478530	     89.95437384	      0.00000000	      0.00000000	      3.16066546	      8.13924498	     -2.96902992	     36.67026787	     89.95437384	      0.00000000	      0.00000000
      0.51000000	      3.86622773	     -2.42442247	     -2.15283170	     -0.72084174	      0.90857754	     -1.41948338	     -4.81173394	      4.95396517	    -15.28584774	    -17.17823590	     -0.29981678	     10.85950853	      2.75758555	      0.10146525	     19.73439529	      4.84681020	      9.42500862	    -38.55259453	     -0.67286971	      3.20423871	      3.52253608	    -12.50768450	     -9.74944335	      4.13868005	      2.36990769	     11.48306138	    -12.14757100	     15.56897000	     21.62582718	     89.95437384	      0.00000000	      0.00000000	      2.87552617	      7.79573925	     -3.06149552	     34.42824184	     89.95437384	      0.00000000	      0.00000000
      0.52000000	      3.83788604	     -2.52410101	     -2.38112195	     -0.70837804	      0.90694123	     -1.41927436	     -5.80165825	      5.00200621	    -15.38953016	    -17.00072255	     -0.29671858	     11.38117871	      3.12302298	     -0.30520605	     20.50861924	      4.79981886	      9.46787602	    -35.73818447	     -0.62374899	      2.70747225	      3.35685478	    -12.23601445	     -9.82071406	      4.12633877	      2.65597991	     12.16694670	    -12.36695040	     15.77102659	     22.67744155	     89.95437384	      0.00000000	      0.00000000	      2.62187614	      7.44174097	     -3.17384984	     31.95722869	     89.95437384	      0.00000000	      0.00000000
      0.53000000	      4.18915644	     -2.41621187	     -2.90350863	     -0.69572260	      0.90573394	     -1.41889005	     -7.09223188	      4.65462357	    -15.52549097	    -17.07349005	     -0.29798862	     11.86991453	      3.81895608	     -1.03728542	     20.56855618	      4.71463160	     10.15552764	    -32.67275405	     -0.57024713	      1.97314600	      3.01699481	    -11.67591690	    -10.33843694	      3.85505098	      3.17543182	     12.85427363	    -12.64132660	     16.15572948	     23.90431721	     89.95437384	      0.00000000	      0.00000000	      2.29896194	      7.14172400	     -3.23901475	     29.74361368	     89.95437384	      0.00000000	      0.00000000
      0.54000000	      4.41237436	     -2.44285755	     -3.16773555	     -0.68279509	      0.90406482	     -1.41883629	     -8.33251602	      4.49256035	    -15.78795616	    -17.01611280	     -0.29698719	     12.29342413	      4.68768396	     -2.07169875	     20.74528430	      4.67496773	     10.54767274	    -29.62867686	     -0.51711796	      1.40234603	      2.64479941	    -11.01383296	    -10.67170610	      3.76450243	      3.46576202	     13.50244898	    -12.91055569	     16.53251970	     25.00553662	     89.95437384	      0.00000000	      0.00000000	      1.95253844	      6.83133127	     -3.35985963	     27.44235601	     89.95437384	      0.00000000	      0.00000000
      0.55000000	      4.44510211	     -2.45740094	     -3.67141403	     -0.67031863	      0.90200945	     -1.41843466	     -9.16761965	      4.29905961	    -15.49286744	    -17.26981575	     -0.30141515	     12.77639443	      5.02302707	     -2.81154085	     21.05705641	      4.74228603	     11.14894300	    -26.65472414	     -0.46521270	      0.84378175	      2.23100735	    -10.41846213	    -10.84366113	      3.64021362	      3.97826488	     14.12783758	    -13.15837921	     16.80777770	     26.13507469	     89.95437384	      0.00000000	      0.00000000	      1.67475165	      6.52243686	     -3.55949153	     25.05093828	     89.95437384	      0.00000000	      0.00000000
      0.56000000	      4.49442543	     -2.48563900	     -4.14963505	     -0.65761636	      0.89987797	     -1.41836205	    -10.02029559	      4.06178150	    -15.29687048	    -17.54861205	     -0.30628106	     13.21121758	      5.47720446	     -3.61472037	     21.25854949	      4.85985414	     11.92645905	    -23.83585212	     -0.41601410	      0.57407799	      1.78630652	     -9.86640469	    -11.02005276	      3.56550764	      4.45037151	     14.75436142	    -13.42205215	     17.11599217	     27.15950307	     89.95437384	      0.00000000	      0.00000000	      1.30913760	      6.19243903	     -3.67626419	     22.80817651	     89.95437384	      0.00000000	      0.00000000
      0.57000000	      4.19040505	     -2.76816700	     -4.44925454	     -0.64532367	      0.89718561	     -1.41830676	    -10.46045221	      4.20091458	    -14.95318656	    -17.83535841	     -0.31128573	     13.50161385	      5.69886692	     -3.88370678	     21.93225949	      5.22400933	     12.25436835	    -21.34156418	     -0.37248056	      0.41849765	      1.29840740	     -9.69539575	    -10.85740847	      3.81824026	      4.73125523	     15.43910617	    -13.57052060	     17.27106417	     27.91377217	     89.95437384	      0.00000000	      0.00000000	      0.88731541	      5.90144809	     -3.93313715	     20.64320427	     89.95437384	      0.00000000	      0.00000000
      0.58000000	      3.99194063	     -2.91915305	     -4.83386861	     -0.63284567	      0.89467920	     -1.41833638	    -10.93470451	      4.13559071	    -14.48258754	    -18.31053882	     -0.31957919	     13.74598976	      5.83904882	     -4.16812664	     22.35515355	      5.52241843	     13.02910755	    -19.00056631	     -0.33162244	      0.24999595	      0.85742691	     -9.52906300	    -10.78917713	      3.92247126	      5.08614255	     16.01937318	    -13.76884790	     17.52576817	     28.78232228	     89.95437384	      0.00000000	      0.00000000	      0.49778227	      5.60481526	     -4.12512500	     18.46791619	     89.95437384	      0.00000000	      0.00000000
